# xmcd CD database file
#
# Track frame offsets:
#	150
#	23067
#	43014
#	69717
#	89843
#	104639
#	113412
#	137453
#	164701
#	178798
#	199046
#	218164
#
# Disc length: 3008 seconds
#
# Revision: 1
# Processed by: cddbd v1.5.2PL0 Copyright (c) Steve Scherf et al.
# Submitted via: CDex 1.75
#
DISCID=af0bbe0c
DTITLE=Hans-Joachim Roedelius and Tim Story - Inlandish
DYEAR=2008
DGENRE=New Age
TTITLE0=As It Were
TTITLE1=Inlandish
TTITLE2=Trouve
TTITLE3=Downrivers
TTITLE4=Ripple And Fade
TTITLE5=Rooftree
TTITLE6=Serpentining
TTITLE7=Houses Of Glances
TTITLE8=The Orchardist
TTITLE9=Riddled
TTITLE10=Beforst
TTITLE11=Intermittent Haiku
EXTD=YEAR: 2008
EXTT0=
EXTT1=
EXTT2=
EXTT3=
EXTT4=
EXTT5=
EXTT6=
EXTT7=
EXTT8=
EXTT9=
EXTT10=
EXTT11=
PLAYORDER=
